<svg version="1.2" xmlns="http://www.w3.org/2000/svg" viewBox="0 0 1546 357" width="1546" height="357"><style>.a{fill:#026d39}</style><path class="a" d="m0.8 27.9l2.3 20.3v28.8l1.4 44.6v146.2l-1.4 56.6-2.3 24.4 24.3-1.6h26.2l37.9 1.6 56.1-1.6h5.2c21.4-0.7 40.8-5.6 58.4-14.2 19.1-9 36-22.2 50.6-38.6 28.1-31.9 41.9-71.3 41.9-117.7 0-39-10.9-72-32.6-99.3-22-27.4-52.7-43.5-92.4-47.6-7.5-1.2-16.1-1.5-25.9-1.9h-16.4l-41.2 1.1h-68.5zm930.2 0.8c-12.3 2.2-26.9 2.6-39.6 1.5-36.4 73.1-71.6 146.5-107.5 219.2l-104.8-219.6c-13.1 1.1-25.9 1.1-39-0.4-2.2 16.9-4.5 33.4-7.1 49.9l-5.6 44.6-13.8 104.5-9.8 69.4-5.2 28.1-4.5 21.4c13.5-1.6 27-1.2 40.8 0 6.4-70.5 13.1-141 19.9-211.4l101.4 212.5h17.2l15-32.6 42.7-86.6 44.1-93.7 21.4 212.9c24.3-3 49-2.7 73.3-1.1-13.4-106.1-25.8-212.2-38.9-318.6zm-857.6 25.9h37.5c13.4 0 26.9 1.1 39.6 4.1v-0.1c43.1 10.1 77.5 41.6 77.5 121.4 0 81-28 124.5-77.5 137.6-11.2 3-23.2 4.5-36.3 4.5h-40.8v-62.9l-0.7-69 0.7-68.6zm1311.3 65.5c-53.9 0.8-58.4 25.1-77.1 61.5l-0.8-55.9c-20.5 1.9-41.5 1.6-62.5 0 9.8 46.5 2.3 172.1 0 222.3l68.2 0.3c-2.6-36.3-3.4-73-3.4-109.4v-8.2c0-3 0-6 0.3-9.8 7.2-53.6 69.7-35.2 68.6-33.7l4.8-4.1c-1.8-21-1.1-42 1.9-63z"/><path class="a" d="m1504.5 41.3l-66.2 29.6 1.8 57.7-31.8-2.2c1.9 9 1.9 16.5 0 24.7 10.5 0 19.9 0 30.3-1.1v142.8c0 6.8 0.4 13.1 1.2 18.7 5.2 46.9 56.1 51 94.7 37.1l9.3-3.3 1.5-19.2c-14.6 6.4-32.2 6.8-41.2-5.6-4.1-6-4.8-18-4.8-34.4v-136.1l42.3 1.1c-1.9-8.6-1.9-16.8 0-25.4-12.4 4.8-26.2 3.3-39.7 3.7v-46.8l1.9-22.5zm-402.1 77.1q-4.8-0.1-9.6 0.2c-27.7 2.2-54 14.6-79 30.7l5.6 28.9 4.5-0.8c23.6-23.6 49.4-27 68.9-21 33.6 10.5 48.2 48.8 0 65.3-6.4 1.8-13.9 3.7-22.5 5.2-35.9 5.2-72.3 24-72.3 65.2 0 28.1 13.9 52.5 45 60 17.2 4.1 34.4 3.3 49.8-3.8 11.2-4.8 21.3-13.1 29.9-25.1 2.6-3.7 16.5 58.9 86.9 20.6l1.4-11.6c-5.2 0.4-11.2-0.4-16.1-2.2-15.7-5.7-11.2-20.6-11.2-34.5v-95.2c0-36-13.8-67.5-51.6-77.6-10.1-2.8-20-4.1-29.7-4.3zm-719 10.4l-2.2 5.4h94.4l-2.2-5.4zm-11.1 26.3l-2.6 6.3h117.5l-2.7-6.3zm-11.4 27.3l-3 7.3h141.2l-3-7.3zm-11.9 28.3l-3.5 8.3h165.9l-3.5-8.3zm775.2 18.4c-2.6 46.5 3 90.7-31.4 93.4-1.1 0.4-1.9 0.4-3 0.4-18.7 0-28.9-12.8-28.1-38.3 0.8-24.7 15.3-36 31.1-43.1 11.6-5.3 23.9-8.2 31.4-12.4zm-787.5 10.9l-3.9 9.2h191.3l-3.9-9.2zm-12.7 30.2l-4.3 10.2h217.4l-4.3-10.2zm-13.1 31.2l-4.8 11.5h244.8l-4.9-11.5zm-13.6 32.4l-5.4 13h273.3l-5.5-13z"/><path class="a" d="m428.5 0c-11.7 61.6-3.7 49.6-61.1 44.5 56.5 26.7 51.2 13.8 23.3 72 24.5-20.4 36.8-36.8 37.8-54.8 1.1 18 13.4 34.4 37.9 54.8-27.9-58.2-33.2-45.3 23.3-72-57.4 5.1-49.4 17.1-61.2-44.5z"/><path fill-rule="evenodd" class="a" d="m458.3 23.3c-3.8-2.8-9.1-1.9-11.9 1.8-2.7 3.8-2 9.1 1.8 11.9 3.8 2.8 9.1 2 11.9-1.8 2.8-3.8 2-9.1-1.8-11.9zm-61.3 11.9c2.8 3.8 8.1 4.6 11.9 1.8 3.8-2.8 4.6-8.1 1.8-11.9-2.8-3.7-8.1-4.6-11.9-1.8-3.8 2.8-4.6 8.1-1.8 11.9z"/></svg>
