<svg version="1.2" xmlns="http://www.w3.org/2000/svg" viewBox="0 0 1501 318" width="1501" height="318">
	<title>Zomato_Logo-svg</title>
	<style>
		.s0 { fill: #e23744 } 
	</style>
	<path id="Layer" fill-rule="evenodd" class="s0" d="m229.3 81.7l-1.4 43.4-113.2 123c47.3 0 77.3-0.5 94.6-1.5-5 23.4-9.1 42.5-13.2 71.1-22.7-1.9-58.2-2.4-93.7-2.4-39.5 0-74.1 0.5-101.8 2.4l0.9-43.9 113.2-122.5c-49.5 0-67.7 0.5-88.2 0.9 4.6-21.9 7.7-46.2 10.9-70.5 35.9 1.4 50 1.9 96.9 1.9 43.2 0 67.7-0.5 95-1.9zm229.1 91c0 79.2-55.9 145-130 145-66.4 0-100.5-45.3-100.5-104.4 0-78.7 56.4-144.5 130-144.5 67.3 0 100.5 45.3 100.5 103.9zm-83.6 3.5c0-29.5-9.6-43.8-25.5-43.8-21.8 0-39.6 34.8-39.6 78.2 0 29 9.6 43.8 26 43.8 21.8 0 39.1-35.3 39.1-78.2zm1126.2-5.4c0 80.2-56.7 146.9-131.7 146.9-67.3 0-101.8-45.9-101.8-105.8 0-79.7 57.1-146.4 131.7-146.4 68.2 0 101.8 45.9 101.8 105.3zm-86.7 5.2c0-29.6-9.5-43.9-25.4-43.9-21.8 0-39.6 34.8-39.6 78.2 0 29.1 9.5 43.9 25.9 43.9 21.8 0 39.1-35.3 39.1-78.2zm-601 141.7h-78l20.4-143.1c1.9-14.3 2.3-24.8-9.1-24.8-19.5 0-45 37.7-50.9 69.7l-7.3 49.1c-2.2 17.1-5 36.7-5.4 49.1h-85.5c4.6-20.5 9.1-52.9 13.2-81.1l8.2-55.3c3.2-20.5 3.6-31.4-7.7-31.4-19.6 0-45 37.6-51 69.6l-7.2 49.1c-2.3 17.1-5.5 36.7-5.9 49.1h-84.6c4.5-20.5 9.1-52.9 13.2-81.1l10.4-71.5c4.1-27.2 5.5-55.8 4.6-77.7 31.8-1 54.5-3.4 80.5-7.7 1.8 7.7 3.1 43.4-3.2 74.9 25-48.1 61.4-77.2 95-77.2 44.5 0 47.7 35.7 42.3 73.9 25-46.3 60.4-73.9 93.2-73.9 45 0 48.2 36.7 42.2 77.2zm435.9-74.8l-9.1 56.2c-14.1 7.7-40.5 18.6-70.9 18.6-51.9 0-62.3-27.6-54.1-86.3l13.1-94.4h-25.5l7.2-61.1 27.9-1.4 10.4-44.3 78.7-29.6-10 73.9h54.1c-1.8 7.7-8.2 49.6-10 62.5h-52.8l-11.8 87.3c-3.2 22.4-1.3 30.5 14.1 30.5 11.4 0 28.2-6.7 38.7-11.9zm-322.7 73.9c-40.4 5-67-11-75-47.5-5-22.9 2-49.1 14.1-64.7 16.3-20.4 42.9-33.5 75.3-37.4 26.1-3.2 48-1.6 68.6 2.2l0.8-3.5c0.6-5.6 1.2-11.2 0.4-18-2.1-17.3-15.8-27.5-49.4-23.4-22.8 2.8-44.4 11-61.2 20.3l-16.3-49.3c22.8-13.1 51.4-23 84.2-27 62.7-7.7 106.8 12.3 112.4 58.2 1.5 12.2 1.7 25.2 0.1 36.9q-12 85.2-15.4 128.2-0.6 6.7 0 22.9l-77.7-0.1q2.4-6.7 4.4-18.2 1.3-7.5 1.9-19c-16.4 22.6-39 36-67.2 39.4zm24.4-43.5c28.6-3.6 48.3-31.2 53-58.7l0.8-7.4c-12.3-2.7-30-4.8-47.3-2.7-16.4 2-30.1 8.8-37.4 18.7-5.5 7.1-8.3 15.6-7.1 25.7 1.9 15.1 18.6 26.7 38 24.4z"/>
</svg>
